<svg id="Layer_1" data-name="Layer 1" xmlns="http://www.w3.org/2000/svg" viewBox="0 0 636 182"><defs><style>.cls-1{fill:#fff;}</style></defs><title>Sentinel</title><path class="cls-1" d="M26.78,124.75q2.37,15.32,12.95,23.84t27.4,8.52q15.53,0,24.38-7a22.61,22.61,0,0,0,8.85-18.66,22,22,0,0,0-6.47-16.18q-6.47-6.47-20.5-10.14l-26.11-6.9Q29.58,93.47,20.41,83.43t-9.17-24.7A39,39,0,0,1,25.05,28.42a46.65,46.65,0,0,1,15.32-8.52,59.8,59.8,0,0,1,19.42-3,60.36,60.36,0,0,1,20.39,3.34,51.37,51.37,0,0,1,16.51,9.49A49.62,49.62,0,0,1,108.33,44.6a56.5,56.5,0,0,1,5.83,19.31h-17Q94.74,48.59,85,40.07T59.36,31.54a40.48,40.48,0,0,0-12.41,1.83,28.63,28.63,0,0,0-9.82,5.29,26,26,0,0,0-6.47,8.09,22.62,22.62,0,0,0-2.37,10.46q0,18.56,24.6,25l27,7.34q19.42,5.18,28.59,15t9.17,24.92A40.94,40.94,0,0,1,114,146.76a38.44,38.44,0,0,1-10.14,13.38,47.53,47.53,0,0,1-15.86,8.74A64.66,64.66,0,0,1,67.34,172a69.93,69.93,0,0,1-22-3.34,53.75,53.75,0,0,1-17.69-9.6,49.66,49.66,0,0,1-12.19-14.89,51.29,51.29,0,0,1-5.72-19.42Z"/><path class="cls-1" d="M116.66,105.12a56.79,56.79,0,0,1,3.56-20.5,45.89,45.89,0,0,1,25.35-26.43,48.44,48.44,0,0,1,19.2-3.78,44.12,44.12,0,0,1,18,3.67A41,41,0,0,1,197,68.44a50.68,50.68,0,0,1,9.38,15.75,56,56,0,0,1,3.45,20.06v14H133.06v2.81A44.21,44.21,0,0,0,135.44,136a33.54,33.54,0,0,0,6.8,11.54A29.94,29.94,0,0,0,152.7,155a33.05,33.05,0,0,0,13.16,2.59,36.8,36.8,0,0,0,16.51-3.67A39.48,39.48,0,0,0,196.06,142l11.65,9.71A53.29,53.29,0,0,1,189.27,167q-10.25,5-23.84,5a49.77,49.77,0,0,1-19.53-3.78,46.08,46.08,0,0,1-15.43-10.46,48,48,0,0,1-10.14-16,55.25,55.25,0,0,1-3.67-20.5Zm47.68-36.25a30.23,30.23,0,0,0-12.62,2.59,28.17,28.17,0,0,0-9.82,7.34,35.58,35.58,0,0,0-6.47,11.33,42.63,42.63,0,0,0-2.37,14.56h60.63v-.86a42.85,42.85,0,0,0-2.27-14.24,33.92,33.92,0,0,0-6.15-11A28.12,28.12,0,0,0,176,71.46,26.58,26.58,0,0,0,164.35,68.87Z"/><path class="cls-1" d="M316,171.5H299.36v-71a33.18,33.18,0,0,0-2.05-11.87,29,29,0,0,0-5.72-9.38,25.81,25.81,0,0,0-9-6.26,29.56,29.56,0,0,0-11.76-2.27,31.83,31.83,0,0,0-12.51,2.37,29.37,29.37,0,0,0-9.71,6.58,30,30,0,0,0-6.36,9.82,32.56,32.56,0,0,0-2.27,12.3V171.5H223.41V57.8H240V79.16A36.77,36.77,0,0,1,254.15,61.9a39.22,39.22,0,0,1,21.9-6.26,40.2,40.2,0,0,1,16.4,3.24A37.31,37.31,0,0,1,305,67.72,40.65,40.65,0,0,1,313.06,81,45.44,45.44,0,0,1,316,97.28Z"/><path class="cls-1" d="M345.45,165.24Q339,159,339,148.85V72.47h-23.3V57.8H339V23.71h16.4V57.8h30.42V72.47H355.37v74q0,10.36,11.43,10.36h19V171.5H363.57Q351.92,171.5,345.45,165.24Z"/><path class="cls-1" d="M400.22,35.58a10.77,10.77,0,0,1-7.88-3.34A10.52,10.52,0,0,1,389,24.57a10.66,10.66,0,0,1,3.34-8,11,11,0,0,1,7.88-3.24,10.35,10.35,0,0,1,7.55,3.24,10.85,10.85,0,0,1,3.24,8,10.7,10.7,0,0,1-3.24,7.66A10.18,10.18,0,0,1,400.22,35.58Zm8.2,135.93H391.81V57.8h16.61Z"/><path class="cls-1" d="M485.46,171.5H468.85v-71a33.15,33.15,0,0,0-2-11.87,29,29,0,0,0-5.72-9.38,25.82,25.82,0,0,0-9-6.26,29.57,29.57,0,0,0-11.76-2.27,31.82,31.82,0,0,0-12.51,2.37,29.37,29.37,0,0,0-9.71,6.58,30,30,0,0,0-6.36,9.82,32.56,32.56,0,0,0-2.27,12.3V171.5H392.9V57.8h16.61V79.16A36.77,36.77,0,0,1,423.65,61.9a39.22,39.22,0,0,1,21.9-6.26,40.2,40.2,0,0,1,16.4,3.24,37.3,37.3,0,0,1,12.51,8.85A40.65,40.65,0,0,1,482.55,81a45.46,45.46,0,0,1,2.91,16.29Z"/><path class="cls-1" d="M472.66,105.12a56.78,56.78,0,0,1,3.56-20.5,45.88,45.88,0,0,1,25.35-26.43,48.43,48.43,0,0,1,19.2-3.78,44.12,44.12,0,0,1,18,3.67A41,41,0,0,1,553,68.44a50.69,50.69,0,0,1,9.38,15.75,56,56,0,0,1,3.45,20.06v14H489.06v2.81A44.22,44.22,0,0,0,491.43,136a33.57,33.57,0,0,0,6.8,11.54A29.93,29.93,0,0,0,508.7,155a33.05,33.05,0,0,0,13.16,2.59,36.8,36.8,0,0,0,16.51-3.67A39.48,39.48,0,0,0,552.06,142l11.65,9.71A53.29,53.29,0,0,1,545.27,167q-10.25,5-23.84,5a49.77,49.77,0,0,1-19.53-3.78,46.09,46.09,0,0,1-15.43-10.46,48,48,0,0,1-10.14-16,55.25,55.25,0,0,1-3.67-20.5Zm47.68-36.25a30.23,30.23,0,0,0-12.62,2.59,28.19,28.19,0,0,0-9.82,7.34,35.62,35.62,0,0,0-6.47,11.33,42.65,42.65,0,0,0-2.37,14.56h60.63v-.86a42.85,42.85,0,0,0-2.27-14.24,33.9,33.9,0,0,0-6.15-11A28.11,28.11,0,0,0,532,71.46,26.58,26.58,0,0,0,520.35,68.87Z"/><path class="cls-1" d="M579.41,171.5V13.35H596V171.5Z"/><path class="cls-1" d="M579.34,154.82h43.78v16.61H579.34Z"/></svg>